HIERARCHY
ROOT hip
{
	OFFSET 0.000000 0.000000 0.000000 
	CHANNELS 6 Xposition Yposition Zposition Xrotation Yrotation Zrotation
	JOINT abdomen
	{
		OFFSET 0.000000 3.402643 0.000000 
		CHANNELS 3 Xrotation  Yrotation Zrotation
		JOINT chest
		{
			OFFSET 0.000000 8.438565 -0.680529 
			CHANNELS 3 Xrotation  Yrotation Zrotation
			JOINT neck
			{
				OFFSET 0.000000 10.207942 -0.272212 
				CHANNELS 3 Xrotation  Yrotation Zrotation
				JOINT head
				{
					OFFSET 0.000000 3.130431 0.000000 
					CHANNELS 3 Xrotation  Yrotation Zrotation
					End Site
					{
						OFFSET 0.000000 3.130435 0.000000 
					}
				}
			}
			JOINT lCollar
			{
				OFFSET 3.470700 6.669187 -0.816635 
				CHANNELS 3 Xrotation  Yrotation Zrotation
				JOINT lShldr
				{
					OFFSET 3.198488 0.000000 0.000000 
					CHANNELS 3 Xrotation  Yrotation Zrotation
					JOINT lForeArm
					{
						OFFSET 10.139888 0.000000 0.000000 
						CHANNELS 3 Xrotation  Yrotation Zrotation
						JOINT lHand
						{
							OFFSET 8.370511 0.000000 0.000000 
							CHANNELS 3 Xrotation  Yrotation Zrotation
							End Site
							{
								OFFSET 4.083176 0.000000 0.000000 
							}
						}
					}
				}
			}
			JOINT rCollar
			{
				OFFSET -3.470700 6.669187 -0.816635 
				CHANNELS 3 Xrotation  Yrotation Zrotation
				JOINT rShldr
				{
					OFFSET -3.198488 0.000000 0.000000 
					CHANNELS 3 Xrotation  Yrotation Zrotation
					JOINT rForeArm
					{
						OFFSET -10.139888 0.000000 0.000000 
						CHANNELS 3 Xrotation  Yrotation Zrotation
						JOINT rHand
						{
							OFFSET -8.370511 0.000000 0.000000 
							CHANNELS 3 Xrotation  Yrotation Zrotation
							End Site
							{
								OFFSET -4.083176 0.000000 0.000000 
							}
						}
					}
				}
			}
		}
	}
	JOINT lThigh
	{
		OFFSET 5.308129 -1.633274 1.361059 
		CHANNELS 3 Xrotation  Yrotation Zrotation
		JOINT lShin
		{
			OFFSET -2.041588 -20.007561 0.000000 
			CHANNELS 3 Xrotation  Yrotation Zrotation
			JOINT lFoot
			{
				OFFSET 0.000000 -19.190928 -1.224953 
				CHANNELS 3 Xrotation  Yrotation Zrotation
				End Site
				{
					OFFSET 0.000000 -2.449906 4.627600 
				}
			}
		}
	}
	JOINT rThigh
	{
		OFFSET -5.308129 -1.633274 1.361059 
		CHANNELS 3 Xrotation  Yrotation Zrotation
		JOINT rShin
		{
			OFFSET 2.041588 -20.007561 0.000000 
			CHANNELS 3 Xrotation  Yrotation Zrotation
			JOINT rFoot
			{
				OFFSET 0.000000 -19.190928 -1.224953 
				CHANNELS 3 Xrotation  Yrotation Zrotation
				End Site
				{
					OFFSET 0.000000 -2.449906 4.627600 
				}
			}
		}
	}
}
MOTION
Frames: 6
Frame Time: 0.033333
0.414677 51.762867 5.206168 1.400212 1.554689 -2.066770 0.000000 0.000000 0.000000 -5.435194 7.032813 2.322592 29.336441 0.039469 2.428989 -19.288855 -6.682540 2.496443 24.377163 2.057985 12.898582 7.841270 -1.261258 -93.651138 73.282265 -6.476589 50.595154 -51.150387 10.034413 -23.669949 15.158482 -29.852983 -14.257024 50.275337 86.187317 48.035896 -12.352737 13.966942 -31.037271 -77.208473 -39.299370 7.036883 4.242193 19.048866 6.396370 11.772449 1.388757 6.046505 3.195518 -29.841028 15.669221 11.515522 0.727698 -0.653039 6.401485 -0.845884 -2.490273 1.071842 -6.903844 18.002106 
0.426657 51.762192 5.204149 1.418114 1.623318 -2.026416 0.000000 0.000000 0.000000 -5.449502 7.025970 2.283279 29.394966 0.037387 2.418958 -19.388514 -6.680862 2.373155 24.374191 1.955764 12.959560 7.810269 -1.393978 -93.842194 73.023827 -6.299108 50.635242 -51.128242 10.020631 -23.722281 15.144283 -29.905378 -14.222948 46.429390 87.132797 51.710247 -21.526453 17.487465 -26.350512 -77.852577 -36.079136 -5.885209 4.223409 19.011913 6.298667 11.748344 1.392499 6.091374 3.200684 -29.832462 15.702917 11.335950 0.737096 -0.702794 6.742559 -0.860108 -2.499019 0.828284 -7.067361 17.492670 
0.439615 51.766941 5.202613 1.403409 1.682096 -1.958989 0.000000 0.000000 0.000000 -5.430588 7.013301 2.214654 29.463226 0.035736 2.408694 -19.494190 -6.672851 2.293084 24.375017 1.837974 12.984792 7.862972 -1.434055 -93.892517 72.952110 -6.189014 50.647720 -51.331135 9.647582 -23.553728 15.147260 -29.960413 -14.160049 38.853920 87.967110 59.031872 -29.161348 19.443666 -22.454708 -77.329079 -32.107517 -15.223566 4.268686 18.971605 6.172374 11.726175 1.395746 6.132308 3.205122 -29.829611 15.729142 11.205656 0.705846 -0.780517 7.018398 -0.837688 -2.538840 0.683176 -7.192228 17.446339 
0.457201 51.773808 5.199963 1.376758 1.770188 -1.863096 0.000000 0.000000 0.000000 -5.380897 6.992839 2.136291 29.503019 0.042240 2.447273 -19.584049 -6.691826 2.265339 24.378109 1.702478 12.992009 7.889487 -1.396978 -93.826180 73.023972 -6.243601 50.651360 -51.461220 9.482257 -23.382214 15.164340 -29.994637 -14.081965 36.137859 88.133415 61.672565 -29.754248 19.224798 -22.329525 -77.176247 -31.936121 -16.942648 4.346636 18.927404 6.005040 11.698739 1.400805 6.202684 3.249795 -29.843002 15.783897 11.218479 0.654996 -0.917231 7.075006 -0.814412 -2.469237 0.705605 -7.182155 17.953096 
0.475859 51.777382 5.192887 1.373265 1.887590 -1.795008 0.000000 0.000000 0.000000 -5.339834 6.972818 2.048102 29.495287 0.051147 2.542233 -19.640892 -6.782490 2.247223 24.379772 1.564815 13.016861 7.851191 -1.323141 -93.738068 73.167404 -6.380629 50.651386 -51.447617 9.606804 -23.320095 15.167195 -30.036963 -14.035492 41.900478 87.664955 56.045193 -22.958603 16.769617 -26.118690 -77.830879 -35.982174 -9.943477 4.351433 18.873987 5.841335 11.698788 1.438403 6.298836 3.286271 -29.906065 15.834042 11.303590 0.621894 -1.093630 6.954803 -0.809614 -2.313127 0.801888 -7.204991 18.196213 
0.490190 51.781513 5.185953 1.358903 1.975617 -1.727617 0.000000 0.000000 0.000000 -5.290281 6.952123 1.969739 29.468990 0.054130 2.660328 -19.677467 -6.891869 2.229625 24.380966 1.473045 13.033385 7.804985 -1.236413 -93.630386 73.304436 -6.544026 50.646008 -51.368572 9.849889 -23.320717 15.145880 -30.070011 -14.062478 48.355698 86.620102 49.817356 -8.585601 9.928262 -33.538586 -76.699066 -40.176311 11.684492 4.356973 18.843657 5.716545 11.705075 1.442723 6.346759 3.293620 -29.935343 15.889809 11.505569 0.577929 -1.259844 6.607266 -0.809692 -2.157485 0.914015 -7.318214 17.736917 
